<svg width="100" height="50" viewBox="0 0 100 50" fill="none" xmlns="http://www.w3.org/2000/svg">
<g clip-path="url(#clip0_42_2)">
<path d="M19.5576 7.51181C20.9401 3.14646 25.4091 0.591511 29.9194 0.0563622C33.5169 -0.151559 37.4251 0.388045 40.27 2.68508C42.223 4.12567 42.97 6.4821 43.6457 8.65636C44.7499 8.65636 45.8576 8.68112 46.9648 8.75537C47.1498 5.95834 49.6452 3.84448 52.2339 2.9326C53.8364 2.30389 55.3617 3.18012 56.7643 3.83854C57.9566 3.28408 59.0112 2.22963 60.4499 2.42369C61.6823 2.28953 62.9184 3.42765 64.0895 2.76032C65.8261 1.83458 68.0736 1.54745 69.8122 2.63161C71.6303 3.44745 72.2499 5.43359 72.7236 7.15141C76.3731 5.92864 80.7483 5.67121 83.97 8.06725C84.9133 7.66626 85.8468 7.24052 86.7798 6.80983C87.4555 3.81478 90.8823 1.84943 93.9437 2.62171C97.3292 3.31973 99.52 7.42369 97.3205 10.2702C97.8462 12.0029 97.9911 13.8544 97.2993 15.5722C98.6607 16.8692 100.141 18.4385 99.8205 20.4385C100.073 23.1465 97.9849 25.2999 95.8318 26.7252C97.2132 28.745 96.3622 31.1663 97.1607 33.3296C97.6823 35.4088 97.2792 37.8098 95.538 39.2806C93.1457 41.7366 89.3524 41.3742 86.1921 41.9301C85.6153 41.5732 85.0385 41.2173 84.4617 40.8752C81.2452 42.3296 77.2705 42.5974 74.3117 40.4336C73.1468 41.494 71.7452 42.2564 70.2091 42.6925C68.6365 44.7658 66.5658 46.841 63.822 47.3014C61.172 47.3915 59.3267 45.0989 58.8524 42.7925C56.1926 43.5945 53.4509 43.2336 50.8627 42.3762C48.5988 44.1192 45.456 44.3262 42.77 43.4598C41.621 45.6133 40.0024 47.5885 37.6916 48.6722C32.7638 51.038 25.9911 50.247 22.4545 45.9549C19.5014 42.4549 19.9854 36.9796 23.4648 33.9643C22.9493 32.8806 22.5519 31.7509 22.3364 30.5836C21.6401 30.3856 20.9509 30.1816 20.2638 29.9895C19.604 30.3212 18.9431 30.6529 18.2895 30.99C14.7993 31.0004 11.2689 30.6583 7.8514 31.5306C6.88748 30.8663 5.73748 30.3623 5.10397 29.3618C4.50603 28.3371 4.62975 27.1341 4.59933 26.0098C0.135415 24.7524 -1.31355 18.7623 1.7849 15.5841C3.70294 13.5984 6.67614 13.2717 9.34109 13.39C11.0272 12.6029 13.022 11.5484 14.8256 12.7514C17.0895 13.7024 16.7694 16.3999 17.9292 18.1237C19.6519 19.2272 21.5787 17.6732 23.4354 17.6682C19.6968 15.7895 18.6555 11.2004 19.5576 7.51181Z" fill="#010102"/>
<path d="M28.546 3.50296C31.5661 2.64158 35.0367 2.70593 37.7929 4.28019C40.7048 5.83465 41.6481 9.95841 39.6532 12.5327C38.8238 13.5921 37.4424 14.003 36.23 14.5025C37.7094 18.25 39.9929 22.4975 44.2924 23.7064C46.7764 24.3554 48.7264 21.999 51.1372 22.2213C52.4821 22.2549 52.3795 23.8693 52.4929 24.7896C50.2614 28.0861 45.4161 28.6604 41.9316 27.0119C38.4372 25.2945 36.1852 21.9233 34.7712 18.5124C34.2094 17.151 33.7553 15.7589 33.2774 14.3738C33.0548 14.4044 32.6011 14.4579 32.3805 14.4876C32.4326 15.3094 32.4893 16.1361 32.5506 16.9629C33.0975 17.2 33.6429 17.4381 34.1939 17.6797C34.0542 18.2886 33.9053 18.904 33.746 19.5114C32.747 21.1906 31.23 22.5411 29.4671 23.4614C28.9625 23.0005 28.3279 22.6485 27.9975 22.0495C28.4156 20.9223 29.3424 19.9718 29.3831 18.7228C29.4563 16.5743 29.1408 14.4307 29.1821 12.2822C29.2383 11.0049 28.2908 10.0148 27.5893 9.0396C28.6816 7.62376 30.5424 7.87128 32.1553 7.90593C32.3161 8.17326 32.48 8.44059 32.6501 8.71287C32.4279 9.84653 32.331 10.9941 32.2898 12.1475C33.7594 12.1426 35.5527 12.3257 36.5104 10.9941C38.0156 9.38019 36.6187 6.87623 34.6754 6.31683C31.6852 5.34059 27.3702 6.05445 26.1754 9.23267C26.6754 11.0297 28.5207 12.3218 28.3975 14.2772C27.6037 14.5639 26.7635 15.2327 25.8929 14.7772C23.4553 13.5693 22.6249 10.5188 23.413 8.12871C24.031 5.7995 26.2218 4.14603 28.546 3.50296Z" fill="#F9FCFA"/>
<path d="M66.5248 5.08223C67.3186 4.80401 68.1743 4.98817 68.9995 5.00797C69.6959 6.20599 70.1537 8.04263 68.85 9.01292C67.8191 9.39461 66.299 9.33471 65.8299 8.20104C65.0774 7.17134 65.7573 5.89411 66.5248 5.08223Z" fill="#F4FAF9"/>
<path d="M50.9118 8.14652C51.5762 6.78513 53.0613 6.06236 54.4262 5.48315C56.2829 9.54751 55.2149 14.1465 56.0551 18.4089C56.5143 18.9287 57.0448 19.394 57.5551 19.8792C57.57 20.146 57.5963 20.6861 57.6113 20.9535C55.8123 21.7703 53.7767 21.5574 51.8535 21.4287C51.8375 21.1272 51.8123 20.5173 51.7973 20.2158C52.1633 19.6762 52.5344 19.1366 52.8174 18.5535C52.7448 15.6228 52.3283 12.7059 52.3839 9.77127C51.8911 9.24058 50.6076 9.09652 50.9118 8.14652Z" fill="#F8FCF9"/>
<path d="M57.9897 7.27522C59.0557 6.39404 60.1454 5.45344 61.5666 5.17126C62.6702 7.53265 62.4686 10.1861 62.732 12.7109C62.9279 14.9386 62.2475 17.596 64.1289 19.3198C64.7526 19.3198 65.3763 19.3198 66.0057 19.3198C66.2526 19.0381 66.7434 18.4787 66.9846 18.2015C66.999 16.7059 66.999 15.2114 66.9279 13.7203C66.4691 13.6114 65.5516 13.3995 65.0928 13.2906C65.5258 11.5034 67.1856 10.4539 68.8351 9.79948C69.9593 12.3143 69.4269 15.1213 69.9691 17.7549C70.5196 18.3044 71.0763 18.8539 71.6387 19.4034C71.6181 19.646 71.5825 20.1218 71.566 20.3594C69.9016 20.6579 68.2098 20.7901 66.5196 20.8099C65.9934 20.4282 65.4681 20.0619 64.947 19.6856C63.6846 21.9237 60.6124 21.2406 58.5037 20.7995C58.9521 19.6064 59.9882 18.552 59.8186 17.2044C59.716 15.0614 59.5609 12.9183 59.4526 10.7747C59.3758 10.2599 59.3083 9.74998 59.2511 9.23909C58.1598 9.05691 58.0248 8.15641 57.9897 7.27522Z" fill="#F8FCF9"/>
<path d="M91.0207 6.48807C92.0831 4.54748 95.8918 5.45837 95.3351 7.80985C94.6341 8.96827 93.2114 8.40391 92.1027 8.46827C93.298 10.0227 95.597 11.4485 94.8197 13.6811C93.897 15.7594 91.196 15.9287 89.2259 16.5524C89.1233 16.7653 88.9161 17.191 88.813 17.4084C90.9423 18.4579 93.2975 16.8143 95.4377 17.8143C96.4795 18.1608 96.8661 19.2356 97.2975 20.1113C96.5655 23.5371 92.5614 24.8683 89.3233 24.6311C87.947 24.3985 86.1274 24.2104 85.4109 22.8985C84.7666 21.7004 85.947 20.2302 87.282 20.4628C88.447 21.245 89.4521 22.2465 90.7408 22.8594C91.9212 22.4292 94.0552 22.2405 93.6686 20.547C93.03 19.6955 91.8387 19.8044 90.8903 19.8787C89.4619 19.9876 88.0295 19.9876 86.5965 19.9574C86.2253 19.6014 85.8588 19.245 85.4929 18.8935C85.4872 18.4381 85.4872 17.9876 85.4872 17.5425C86.0552 17.0425 86.6264 16.542 87.2088 16.0574C86.5537 15.3396 85.5542 14.7851 85.3789 13.7792C85.0032 12.6603 85.6686 11.6217 86.1052 10.6356C87.6779 9.81381 89.3996 9.35342 91.1671 9.12075C90.9171 8.27471 90.1903 7.24005 91.0207 6.48807Z" fill="#F6FAF7"/>
<path d="M77.2413 10.5817C78.4887 9.82918 80.1377 8.81928 81.5758 9.74998C83.133 10.7648 82.917 12.7401 83.0706 14.3094C83.0036 15.646 84.5026 16.3 84.6016 17.5965C83.3078 18.9183 82.0191 21.152 79.7717 20.3539C80.1789 17.7599 80.9109 14.9331 79.6325 12.4579C78.8438 12.652 78.0706 12.8539 77.2861 13.047C77.081 14.0906 76.6944 15.1361 76.8474 16.2143C76.982 17.6549 78.3789 18.4767 79.0645 19.6693C77.2712 20.5114 75.2717 20.5163 73.3268 20.4119C73.1258 20.1747 72.7186 19.6945 72.5181 19.4564C73.0134 18.9614 73.5139 18.4767 74.0387 18.0104C74.1784 17.6049 74.3284 17.2089 74.4717 16.8069C74.2459 15.7376 74.1413 14.6534 74.0794 13.5693C73.6928 13.5 72.9304 13.3614 72.5438 13.2921C72.5542 12.5297 72.749 11.8015 73.0387 11.1039C73.9201 10.5346 74.7959 9.95542 75.698 9.40493C76.2541 10.0099 76.6351 10.7168 77.0067 11.4445C77.0665 11.2307 77.1856 10.8 77.2413 10.5817Z" fill="#F8FBF9"/>
<path d="M88.1743 12.6217C88.5666 11.2158 90.2681 11.3108 91.4521 11.493C91.8336 12.0534 92.1434 12.6465 92.3697 13.291C91.5398 13.7712 90.6532 14.1376 89.7604 14.4891C89.1387 13.998 87.6748 13.7009 88.1743 12.6217Z" fill="#030207"/>
<path d="M43.1388 11.9877C45.4022 10.9194 48.4949 11.6471 49.679 13.8639C50.746 16.0976 50.8032 19.0768 48.8702 20.8936C47.4527 22.3986 45.0305 22.2302 43.165 21.7946C39.2372 20.1411 39.1852 13.6515 43.1388 11.9877Z" fill="#F8FBF6"/>
<path d="M43.7726 14.5624C44.8767 13.3753 47.1752 14.1416 47.37 15.6961C47.5345 16.9782 47.7922 18.7456 46.3391 19.4683C45.3231 19.6025 43.9582 19.7208 43.4829 18.6168C42.8597 17.3936 42.7371 15.5965 43.7726 14.5624Z" fill="#020103"/>
<path d="M11.4788 16.4188C12.2206 15.6228 13.1391 15.1119 14.2783 15.3297C14.2726 16.2307 14.418 17.3 13.5051 17.8644C12.6958 18.0525 11.8654 18.0673 11.0458 18.1376C11.1639 20.0277 11.1386 21.9238 11.3087 23.8104C11.6597 24.2312 12.0149 24.6574 12.3711 25.0871C11.3963 26.3555 10.3969 28.0233 8.48448 27.8802C8.82469 25.8688 9.97469 23.6074 8.55716 21.7416C7.72211 22.9936 5.52623 22.8109 4.70201 21.6485C3.52159 20.3565 3.7685 18.0792 5.28448 17.1134C7.07675 15.8639 9.43242 16.6317 11.4788 16.4188Z" fill="#F2FAF9"/>
<path d="M5.85522 20.3193C6.07223 19.5183 5.93254 18.443 6.9176 18.102C7.58254 17.9678 8.25832 17.9039 8.94388 17.9039C8.99028 18.8693 9.05729 19.8396 9.14956 20.8148C8.11347 20.3297 6.96347 20.3935 5.85522 20.3193Z" fill="#030408"/>
<path d="M13.5053 17.8639C13.881 17.9981 14.6331 18.2609 15.0156 18.3896C15.2063 19.4193 15.2176 20.4738 15.3001 21.5233C16.4599 20.958 17.6511 20.7555 18.7939 21.4787C18.912 22.4342 19.0161 23.3886 19.0929 24.3505C19.4063 24.7748 19.7264 25.2065 20.047 25.6411C19.4702 26.2911 18.8764 26.9243 18.2537 27.5372C17.8821 27.4674 17.1465 27.3292 16.7743 27.2594C17.3156 25.8188 17.7321 24.1411 16.7279 22.7797C16.2481 22.9426 15.7939 23.1644 15.3424 23.3832C15.3532 24.0718 15.3826 24.7698 15.4352 25.4629C15.8006 26.0372 16.1821 26.6065 16.5841 27.1649C15.3573 27.3282 14.1207 27.4322 12.8831 27.4575C12.8568 27.2688 12.8058 26.8886 12.78 26.6946C13.0996 26.2253 13.4192 25.7639 13.7233 25.2951C13.3475 23.7753 13.3723 22.206 13.3682 20.656C11.531 20.2456 13.1599 18.8193 13.5053 17.8639Z" fill="#F2F9F8"/>
<path d="M22.0711 20.8742C23.6494 20.5738 25.8143 20.7059 26.1839 22.5822C26.8025 24.7203 23.8334 24.4535 22.4417 24.5124C22.5149 24.7292 22.6638 25.1648 22.7406 25.3837C23.9324 25.3594 25.0283 24.8544 26.2046 24.7252C26.602 27.4287 21.7205 27.8396 20.9571 25.4386C20.0252 23.8242 20.768 22.0371 22.0711 20.8742Z" fill="#F1FBF9"/>
<path d="M32.6743 25.4381C33.7516 25.5916 34.7254 24.2649 35.7408 25.0163C37.1233 26.1302 37.963 27.9074 37.8965 29.646C37.4424 30.0069 36.9212 30.2649 36.4114 30.5371C35.112 29.4965 33.8078 28.4084 32.1908 27.8743C31.5609 28.0911 30.9279 28.3094 30.3042 28.5322C30.2217 29.2748 29.3609 30.2703 30.4073 30.7144C33.0872 32.2055 36.3609 32.5371 38.8151 34.4728C40.2681 36.3396 40.7743 38.6658 40.5419 40.9619C38.9955 46.6698 30.6717 48.2193 26.3826 44.4376C23.7016 42.3139 23.6764 37.4277 26.9032 35.7683C28.5934 34.7644 31.063 34.7782 32.347 36.3871C32.1099 36.9277 31.879 37.4713 31.6465 38.0158C30.4975 38.3931 29.0903 38.4515 28.296 39.4416C27.8986 40.8376 28.4872 42.5025 29.9511 43.0762C31.8893 43.897 34.5171 43.7089 36.0491 42.2099C37.78 40.3139 37.2609 36.9921 34.9145 35.7797C32.6109 34.6064 29.9248 34.2005 27.7506 32.7748C26.0439 31.6411 25.7506 29.2055 26.9836 27.6475C28.1754 25.8248 30.5413 25.1614 32.6743 25.4381Z" fill="#F8FCF9"/>
<path d="M86.5871 27.9237C87.9938 26.7168 90.1072 27.9237 91.5453 26.7752C91.8087 26.7752 92.3391 26.7703 92.6025 26.7703C93.3025 27.8307 93.8443 28.9831 94.2834 30.1762C92.7886 31.4683 91.267 30.1465 89.9484 29.3495C89.7113 29.3802 89.2273 29.4282 88.9901 29.4584C88.9845 29.8445 88.9793 30.2356 88.9845 30.6317C90.6803 31.3742 92.7535 31.5623 94.0979 32.9099C95.1236 33.9594 94.3917 35.3851 94.0927 36.5836C92.7371 37.7024 91.0051 38.0094 89.2685 37.7114C88.6448 38.0039 87.9855 38.5777 87.2474 38.2767C86.0206 37.2866 85.2267 35.8262 85.2793 34.2713C87.1505 33.3262 88.5943 35.0787 90.2582 35.6222C91.4855 36.0975 91.2128 34.6376 91.3566 34.0029C89.6082 33.4633 87.836 32.9623 86.1963 32.1569C86.0113 31.8698 85.6396 31.296 85.4551 31.0094C85.4329 29.8886 85.6644 28.6911 86.5871 27.9237Z" fill="#F7FAF9"/>
<path d="M66.1588 29.5916C67.5872 28.7797 69.3454 27.8985 70.9795 28.7797C74.1279 30.4817 74.5104 35.0718 72.4789 37.7243C71.4743 39.2441 69.0965 39.6941 67.597 38.601C66.7155 38.1654 66.6429 36.7782 67.4326 36.2297C68.1702 36.1258 68.9228 36.0812 69.6795 36.0916C70.8805 34.9827 71.1903 33.4381 70.4057 32.0075C70.1171 31.8139 69.5398 31.4282 69.2516 31.2347C68.148 31.2451 66.7475 31.507 66.4934 32.7396C66.3026 34.3931 66.4315 36.0669 66.499 37.7292C66.4728 38.6852 67.4887 39.1555 67.948 39.9035C68.1856 40.6792 67.4063 41.2104 66.999 41.7698C66.0037 42.6867 64.9434 44.0322 63.38 43.6322C62.7511 42.2708 63.6377 40.8555 63.5965 39.4639C63.5032 37.2302 63.199 35.0134 63.2619 32.7807C62.7614 32.5471 62.263 32.3193 61.7717 32.0916C61.7253 31.8139 61.632 31.2594 61.5913 30.9827C62.6011 29.9342 63.7047 28.755 65.2923 28.6376C65.5099 28.8743 65.9429 29.354 66.1588 29.5916Z" fill="#F8FCF9"/>
<path d="M76.4381 29.052C78.5521 27.0015 82.7526 27.3926 84.0768 30.1119C84.5979 31.1664 84.9227 32.9931 83.5407 33.5525C81.8299 34.4084 79.8763 34.1565 78.0309 34.1713C78.0778 34.4238 78.1804 34.9386 78.2325 35.1911C80.2686 36.6367 82.1716 34.5872 84.3 34.6565C84.3412 35.2753 84.4753 35.9045 84.3933 36.5327C83.6309 37.8411 81.9711 38.152 80.6206 38.6169C78.0582 38.6515 75.4768 37.0733 75.0737 34.5327C74.4794 32.6357 75.0155 30.4877 76.4381 29.052Z" fill="#F8FBF9"/>
<path d="M52.0877 30.899C53.3872 29.003 56.0882 28.8886 58.1444 29.4644C60.7011 30.3703 61.2016 33.3064 61.1232 35.602C60.6748 36.9436 60.0975 38.4589 58.6748 39.1178C57.2985 39.8906 55.6696 39.5931 54.1588 39.6465C50.8655 38.0866 49.8294 33.6614 52.0877 30.899Z" fill="#F9FDF8"/>
<path d="M43.1282 30.6955C44.0824 29.8836 45.3757 29.6866 46.5556 29.3599C47.6427 29.7252 48.8901 29.9341 49.7251 30.7609C50.3489 31.5678 50.1839 32.8193 49.204 33.3094C47.7973 32.7643 46.405 32.0381 44.8375 32.2693C43.9566 33.7693 43.5638 36.0019 45.204 37.1693C46.9556 37.996 48.6061 36.298 50.4148 36.5653C50.4499 37.446 50.8834 38.6495 49.8726 39.1985C48.5019 40.4559 46.455 40.5292 44.7035 40.1831C40.8246 38.8346 40.0148 33.1613 43.1282 30.6955Z" fill="#F7FCF8"/>
<path d="M78.4125 30.404C79.7269 30.1168 81.6547 29.8109 81.7521 31.6317C80.3666 32.0129 78.932 32.1995 77.4939 32.2698C77.7887 31.6416 78.0975 31.0228 78.4125 30.404Z" fill="#03080A"/>
<path d="M54.6953 31.8198C55.571 31.4337 56.5406 31.7104 57.4535 31.8247C58.1298 33.0728 58.6654 34.5173 58.0721 35.9089C57.536 37.6267 54.6076 37.6663 53.9999 35.9535C53.788 34.5767 53.4793 32.8589 54.6953 31.8198Z" fill="#040304"/>
</g>
<defs>
<clipPath id="clip0_42_2">
<rect width="100" height="50" fill="white"/>
</clipPath>
</defs>
</svg>
