<svg width="24" height="24" viewBox="0 0 24 24" fill="none" xmlns="http://www.w3.org/2000/svg">
<path d="M16.73 2.06494H7.27004C6.64266 2.10263 6.05549 2.38633 5.63607 2.85443C5.21666 3.32253 4.99888 3.93721 5.03004 4.56494V19.4349C4.99888 20.0627 5.21666 20.6774 5.63607 21.1455C6.05549 21.6135 6.64266 21.8973 7.27004 21.9349H16.73C17.3574 21.8973 17.9446 21.6135 18.364 21.1455C18.7834 20.6774 19.0012 20.0627 18.97 19.4349V4.56494C19.0012 3.93721 18.7834 3.32253 18.364 2.85443C17.9446 2.38633 17.3574 2.10263 16.73 2.06494ZM17.97 19.4349C18.0008 19.7975 17.8882 20.1577 17.6564 20.4382C17.4245 20.7186 17.0919 20.897 16.73 20.9349H7.27004C6.90814 20.897 6.57557 20.7186 6.34372 20.4382C6.11188 20.1577 5.99925 19.7975 6.03004 19.4349V4.56494C5.99925 4.20237 6.11188 3.84218 6.34372 3.56172C6.57557 3.28126 6.90814 3.1029 7.27004 3.06494H8.80004V3.57494C8.80004 3.84016 8.90539 4.09451 9.09293 4.28205C9.28047 4.46958 9.53482 4.57494 9.80004 4.57494H14.2C14.4653 4.57494 14.7196 4.46958 14.9071 4.28205C15.0947 4.09451 15.2 3.84016 15.2 3.57494V3.06494H16.73C17.0919 3.1029 17.4245 3.28126 17.6564 3.56172C17.8882 3.84218 18.0008 4.20237 17.97 4.56494V19.4349Z" fill="black"/>
<path d="M10 18.934H14C14.1326 18.934 14.2598 18.8813 14.3536 18.7875C14.4473 18.6937 14.5 18.5666 14.5 18.434C14.5 18.3014 14.4473 18.1742 14.3536 18.0804C14.2598 17.9866 14.1326 17.934 14 17.934H10C9.86739 17.934 9.74021 17.9866 9.64645 18.0804C9.55268 18.1742 9.5 18.3014 9.5 18.434C9.5 18.5666 9.55268 18.6937 9.64645 18.7875C9.74021 18.8813 9.86739 18.934 10 18.934Z" fill="black"/>
</svg>
