<svg width="36" height="36" viewBox="0 0 36 36" fill="none" xmlns="http://www.w3.org/2000/svg">
<path d="M17.9999 3.37048C14.438 3.3704 10.9924 4.63781 8.27953 6.94589C5.56668 9.25398 3.76369 12.4521 3.1932 15.968C2.6227 19.4838 3.32195 23.088 5.16579 26.1355C7.00964 29.1829 9.87775 31.4748 13.2569 32.601C14.0069 32.733 14.2874 32.283 14.2874 31.8885C14.2874 31.533 14.2694 30.351 14.2694 29.0955C10.4999 29.7885 9.52488 28.176 9.22488 27.333C8.89209 26.5121 8.36439 25.7847 7.68738 25.2135C7.16238 24.933 6.41238 24.2385 7.66788 24.2205C8.1477 24.2724 8.60793 24.4393 9.00953 24.7069C9.41114 24.9746 9.74228 25.3351 9.97488 25.758C10.18 26.1265 10.4558 26.4509 10.7865 26.7127C11.1172 26.9744 11.4963 27.1683 11.9021 27.2833C12.3078 27.3982 12.7323 27.432 13.1511 27.3826C13.57 27.3332 13.975 27.2017 14.3429 26.9955C14.4079 26.2325 14.748 25.5192 15.2999 24.9885C11.9624 24.6135 8.47488 23.3205 8.47488 17.583C8.45363 16.0919 9.00375 14.6493 10.0124 13.551C9.55384 12.2553 9.6075 10.8334 10.1624 9.57598C10.1624 9.57598 11.4179 9.18298 14.2874 11.1135C16.7418 10.4384 19.333 10.4384 21.7874 11.1135C24.6554 9.16348 25.9124 9.57598 25.9124 9.57598C26.4674 10.8334 26.5211 12.2553 26.0624 13.551C27.0741 14.6474 27.6247 16.0913 27.5999 17.583C27.5999 23.3385 24.0929 24.6135 20.7569 24.9885C21.1146 25.3514 21.39 25.7871 21.5645 26.2659C21.7389 26.7447 21.8083 27.2555 21.7679 27.7635C21.7679 29.7705 21.7499 31.383 21.7499 31.8885C21.7499 32.283 22.0304 32.751 22.7804 32.601C26.1533 31.4654 29.0129 29.1681 30.8486 26.1191C32.6844 23.0702 33.3769 19.468 32.8025 15.9558C32.228 12.4435 30.4241 9.24963 27.7127 6.94435C25.0013 4.63908 21.5588 3.37242 17.9999 3.37048Z" fill="black"/>
</svg>
